<svg width="86" height="115" viewBox="0 0 86 115" fill="none" xmlns="http://www.w3.org/2000/svg">
<g opacity="0.3">
<mask id="mask0_51_2" style="mask-type:alpha" maskUnits="userSpaceOnUse" x="0" y="0" width="11" height="11">
<path d="M5.22838 10.425C8.11594 10.425 10.4568 8.09121 10.4568 5.21245C10.4568 2.33368 8.11594 0 5.22838 0C2.34082 0 0 2.33368 0 5.21245C0 8.09121 2.34082 10.425 5.22838 10.425Z" fill="url(#paint0_linear_51_2)"/>
</mask>
<g mask="url(#mask0_51_2)">
<path d="M5.22838 10.425C8.11594 10.425 10.4568 8.09121 10.4568 5.21245C10.4568 2.33368 8.11594 0 5.22838 0C2.34082 0 0 2.33368 0 5.21245C0 8.09121 2.34082 10.425 5.22838 10.425Z" fill="url(#paint1_linear_51_2)"/>
</g>
<mask id="mask1_51_2" style="mask-type:alpha" maskUnits="userSpaceOnUse" x="30" y="0" width="11" height="11">
<path d="M35.5095 10.425C38.397 10.425 40.7378 8.09121 40.7378 5.21245C40.7378 2.33368 38.397 0 35.5095 0C32.6219 0 30.2811 2.33368 30.2811 5.21245C30.2811 8.09121 32.6219 10.425 35.5095 10.425Z" fill="url(#paint2_linear_51_2)"/>
</mask>
<g mask="url(#mask1_51_2)">
<path d="M35.5095 10.425C38.397 10.425 40.7378 8.09121 40.7378 5.21245C40.7378 2.33368 38.397 0 35.5095 0C32.6219 0 30.2811 2.33368 30.2811 5.21245C30.2811 8.09121 32.6219 10.425 35.5095 10.425Z" fill="url(#paint3_linear_51_2)"/>
</g>
<mask id="mask2_51_2" style="mask-type:alpha" maskUnits="userSpaceOnUse" x="60" y="0" width="12" height="11">
<path d="M65.7905 10.425C68.6781 10.425 71.0189 8.09121 71.0189 5.21245C71.0189 2.33368 68.6781 0 65.7905 0C62.903 0 60.5621 2.33368 60.5621 5.21245C60.5621 8.09121 62.903 10.425 65.7905 10.425Z" fill="url(#paint4_linear_51_2)"/>
</mask>
<g mask="url(#mask2_51_2)">
<path d="M65.7905 10.425C68.6781 10.425 71.0189 8.09121 71.0189 5.21245C71.0189 2.33368 68.6781 0 65.7905 0C62.903 0 60.5621 2.33368 60.5621 5.21245C60.5621 8.09121 62.903 10.425 65.7905 10.425Z" fill="url(#paint5_linear_51_2)"/>
</g>
<mask id="mask3_51_2" style="mask-type:alpha" maskUnits="userSpaceOnUse" x="0" y="26" width="11" height="11">
<path d="M5.22838 36.5958C8.11594 36.5958 10.4568 34.2621 10.4568 31.3833C10.4568 28.5046 8.11594 26.1709 5.22838 26.1709C2.34082 26.1709 0 28.5046 0 31.3833C0 34.2621 2.34082 36.5958 5.22838 36.5958Z" fill="url(#paint6_linear_51_2)"/>
</mask>
<g mask="url(#mask3_51_2)">
<path d="M5.22838 36.5958C8.11594 36.5958 10.4568 34.2621 10.4568 31.3833C10.4568 28.5046 8.11594 26.1709 5.22838 26.1709C2.34082 26.1709 0 28.5046 0 31.3833C0 34.2621 2.34082 36.5958 5.22838 36.5958Z" fill="url(#paint7_linear_51_2)"/>
</g>
<mask id="mask4_51_2" style="mask-type:alpha" maskUnits="userSpaceOnUse" x="30" y="26" width="11" height="11">
<path d="M35.5095 36.5958C38.397 36.5958 40.7378 34.2621 40.7378 31.3833C40.7378 28.5046 38.397 26.1709 35.5095 26.1709C32.6219 26.1709 30.2811 28.5046 30.2811 31.3833C30.2811 34.2621 32.6219 36.5958 35.5095 36.5958Z" fill="url(#paint8_linear_51_2)"/>
</mask>
<g mask="url(#mask4_51_2)">
<path d="M35.5095 36.5958C38.397 36.5958 40.7378 34.2621 40.7378 31.3833C40.7378 28.5046 38.397 26.1709 35.5095 26.1709C32.6219 26.1709 30.2811 28.5046 30.2811 31.3833C30.2811 34.2621 32.6219 36.5958 35.5095 36.5958Z" fill="url(#paint9_linear_51_2)"/>
</g>
<mask id="mask5_51_2" style="mask-type:alpha" maskUnits="userSpaceOnUse" x="60" y="26" width="12" height="11">
<path d="M65.7905 36.5958C68.6781 36.5958 71.0189 34.2621 71.0189 31.3833C71.0189 28.5046 68.6781 26.1709 65.7905 26.1709C62.903 26.1709 60.5621 28.5046 60.5621 31.3833C60.5621 34.2621 62.903 36.5958 65.7905 36.5958Z" fill="url(#paint10_linear_51_2)"/>
</mask>
<g mask="url(#mask5_51_2)">
<path d="M65.7905 36.5958C68.6781 36.5958 71.0189 34.2621 71.0189 31.3833C71.0189 28.5046 68.6781 26.1709 65.7905 26.1709C62.903 26.1709 60.5621 28.5046 60.5621 31.3833C60.5621 34.2621 62.903 36.5958 65.7905 36.5958Z" fill="url(#paint11_linear_51_2)"/>
</g>
<mask id="mask6_51_2" style="mask-type:alpha" maskUnits="userSpaceOnUse" x="0" y="52" width="11" height="11">
<path d="M5.22838 62.7126C8.11594 62.7126 10.4568 60.3789 10.4568 57.5001C10.4568 54.6213 8.11594 52.2876 5.22838 52.2876C2.34082 52.2876 0 54.6213 0 57.5001C0 60.3789 2.34082 62.7126 5.22838 62.7126Z" fill="url(#paint12_linear_51_2)"/>
</mask>
<g mask="url(#mask6_51_2)">
<path d="M5.22838 62.7126C8.11594 62.7126 10.4568 60.3789 10.4568 57.5001C10.4568 54.6213 8.11594 52.2876 5.22838 52.2876C2.34082 52.2876 0 54.6213 0 57.5001C0 60.3789 2.34082 62.7126 5.22838 62.7126Z" fill="url(#paint13_linear_51_2)"/>
</g>
<mask id="mask7_51_2" style="mask-type:alpha" maskUnits="userSpaceOnUse" x="30" y="52" width="11" height="11">
<path d="M35.5095 62.7126C38.397 62.7126 40.7378 60.3789 40.7378 57.5001C40.7378 54.6213 38.397 52.2876 35.5095 52.2876C32.6219 52.2876 30.2811 54.6213 30.2811 57.5001C30.2811 60.3789 32.6219 62.7126 35.5095 62.7126Z" fill="url(#paint14_linear_51_2)"/>
</mask>
<g mask="url(#mask7_51_2)">
<path d="M35.5095 62.7126C38.397 62.7126 40.7378 60.3789 40.7378 57.5001C40.7378 54.6213 38.397 52.2876 35.5095 52.2876C32.6219 52.2876 30.2811 54.6213 30.2811 57.5001C30.2811 60.3789 32.6219 62.7126 35.5095 62.7126Z" fill="url(#paint15_linear_51_2)"/>
</g>
<mask id="mask8_51_2" style="mask-type:alpha" maskUnits="userSpaceOnUse" x="60" y="52" width="12" height="11">
<path d="M65.7905 62.7126C68.6781 62.7126 71.0189 60.3789 71.0189 57.5001C71.0189 54.6213 68.6781 52.2876 65.7905 52.2876C62.903 52.2876 60.5621 54.6213 60.5621 57.5001C60.5621 60.3789 62.903 62.7126 65.7905 62.7126Z" fill="url(#paint16_linear_51_2)"/>
</mask>
<g mask="url(#mask8_51_2)">
<path d="M65.7905 62.7126C68.6781 62.7126 71.0189 60.3789 71.0189 57.5001C71.0189 54.6213 68.6781 52.2876 65.7905 52.2876C62.903 52.2876 60.5621 54.6213 60.5621 57.5001C60.5621 60.3789 62.903 62.7126 65.7905 62.7126Z" fill="url(#paint17_linear_51_2)"/>
</g>
<mask id="mask9_51_2" style="mask-type:alpha" maskUnits="userSpaceOnUse" x="0" y="78" width="11" height="11">
<path d="M5.22838 88.8835C8.11594 88.8835 10.4568 86.5497 10.4568 83.6709C10.4568 80.7922 8.11594 78.4585 5.22838 78.4585C2.34082 78.4585 0 80.7922 0 83.6709C0 86.5497 2.34082 88.8835 5.22838 88.8835Z" fill="url(#paint18_linear_51_2)"/>
</mask>
<g mask="url(#mask9_51_2)">
<path d="M5.22838 88.8835C8.11594 88.8835 10.4568 86.5497 10.4568 83.6709C10.4568 80.7922 8.11594 78.4585 5.22838 78.4585C2.34082 78.4585 0 80.7922 0 83.6709C0 86.5497 2.34082 88.8835 5.22838 88.8835Z" fill="url(#paint19_linear_51_2)"/>
</g>
<mask id="mask10_51_2" style="mask-type:alpha" maskUnits="userSpaceOnUse" x="30" y="78" width="11" height="11">
<path d="M35.5095 88.8835C38.397 88.8835 40.7378 86.5497 40.7378 83.6709C40.7378 80.7922 38.397 78.4585 35.5095 78.4585C32.6219 78.4585 30.2811 80.7922 30.2811 83.6709C30.2811 86.5497 32.6219 88.8835 35.5095 88.8835Z" fill="url(#paint20_linear_51_2)"/>
</mask>
<g mask="url(#mask10_51_2)">
<path d="M35.5095 88.8835C38.397 88.8835 40.7378 86.5497 40.7378 83.6709C40.7378 80.7922 38.397 78.4585 35.5095 78.4585C32.6219 78.4585 30.2811 80.7922 30.2811 83.6709C30.2811 86.5497 32.6219 88.8835 35.5095 88.8835Z" fill="url(#paint21_linear_51_2)"/>
</g>
<mask id="mask11_51_2" style="mask-type:alpha" maskUnits="userSpaceOnUse" x="60" y="78" width="12" height="11">
<path d="M65.7905 88.8835C68.6781 88.8835 71.0189 86.5497 71.0189 83.6709C71.0189 80.7922 68.6781 78.4585 65.7905 78.4585C62.903 78.4585 60.5621 80.7922 60.5621 83.6709C60.5621 86.5497 62.903 88.8835 65.7905 88.8835Z" fill="url(#paint22_linear_51_2)"/>
</mask>
<g mask="url(#mask11_51_2)">
<path d="M65.7905 88.8835C68.6781 88.8835 71.0189 86.5497 71.0189 83.6709C71.0189 80.7922 68.6781 78.4585 65.7905 78.4585C62.903 78.4585 60.5621 80.7922 60.5621 83.6709C60.5621 86.5497 62.903 88.8835 65.7905 88.8835Z" fill="url(#paint23_linear_51_2)"/>
</g>
<mask id="mask12_51_2" style="mask-type:alpha" maskUnits="userSpaceOnUse" x="0" y="104" width="11" height="11">
<path d="M5.22838 115C8.11594 115 10.4568 112.666 10.4568 109.787C10.4568 106.909 8.11594 104.575 5.22838 104.575C2.34082 104.575 0 106.909 0 109.787C0 112.666 2.34082 115 5.22838 115Z" fill="url(#paint24_linear_51_2)"/>
</mask>
<g mask="url(#mask12_51_2)">
<path d="M5.22838 115C8.11594 115 10.4568 112.666 10.4568 109.787C10.4568 106.909 8.11594 104.575 5.22838 104.575C2.34082 104.575 0 106.909 0 109.787C0 112.666 2.34082 115 5.22838 115Z" fill="url(#paint25_linear_51_2)"/>
</g>
<mask id="mask13_51_2" style="mask-type:alpha" maskUnits="userSpaceOnUse" x="30" y="104" width="11" height="11">
<path d="M35.5095 115C38.397 115 40.7378 112.666 40.7378 109.787C40.7378 106.909 38.397 104.575 35.5095 104.575C32.6219 104.575 30.2811 106.909 30.2811 109.787C30.2811 112.666 32.6219 115 35.5095 115Z" fill="url(#paint26_linear_51_2)"/>
</mask>
<g mask="url(#mask13_51_2)">
<path d="M35.5095 115C38.397 115 40.7378 112.666 40.7378 109.787C40.7378 106.909 38.397 104.575 35.5095 104.575C32.6219 104.575 30.2811 106.909 30.2811 109.787C30.2811 112.666 32.6219 115 35.5095 115Z" fill="url(#paint27_linear_51_2)"/>
</g>
<mask id="mask14_51_2" style="mask-type:alpha" maskUnits="userSpaceOnUse" x="60" y="104" width="12" height="11">
<path d="M65.7905 115C68.6781 115 71.0189 112.666 71.0189 109.787C71.0189 106.909 68.6781 104.575 65.7905 104.575C62.903 104.575 60.5621 106.909 60.5621 109.787C60.5621 112.666 62.903 115 65.7905 115Z" fill="url(#paint28_linear_51_2)"/>
</mask>
<g mask="url(#mask14_51_2)">
<path d="M65.7905 115C68.6781 115 71.0189 112.666 71.0189 109.787C71.0189 106.909 68.6781 104.575 65.7905 104.575C62.903 104.575 60.5621 106.909 60.5621 109.787C60.5621 112.666 62.903 115 65.7905 115Z" fill="url(#paint29_linear_51_2)"/>
</g>
</g>
<defs>
<linearGradient id="paint0_linear_51_2" x1="54.996" y1="131.134" x2="-16.4057" y2="-50.67" gradientUnits="userSpaceOnUse">
<stop/>
<stop offset="1" stop-color="white"/>
</linearGradient>
<linearGradient id="paint1_linear_51_2" x1="54.996" y1="131.134" x2="-16.4057" y2="-50.67" gradientUnits="userSpaceOnUse">
<stop stop-color="#97C3F9"/>
<stop offset="1" stop-color="#93C1F9"/>
</linearGradient>
<linearGradient id="paint2_linear_51_2" x1="81.2005" y1="120.843" x2="9.79889" y2="-60.9613" gradientUnits="userSpaceOnUse">
<stop/>
<stop offset="1" stop-color="white"/>
</linearGradient>
<linearGradient id="paint3_linear_51_2" x1="81.2005" y1="120.843" x2="9.79889" y2="-60.9613" gradientUnits="userSpaceOnUse">
<stop stop-color="#97C3F9"/>
<stop offset="1" stop-color="#93C1F9"/>
</linearGradient>
<linearGradient id="paint4_linear_51_2" x1="107.405" y1="110.551" x2="36.0033" y2="-71.2526" gradientUnits="userSpaceOnUse">
<stop/>
<stop offset="1" stop-color="white"/>
</linearGradient>
<linearGradient id="paint5_linear_51_2" x1="107.405" y1="110.551" x2="36.0033" y2="-71.2526" gradientUnits="userSpaceOnUse">
<stop stop-color="#97C3F9"/>
<stop offset="1" stop-color="#93C1F9"/>
</linearGradient>
<linearGradient id="paint6_linear_51_2" x1="46.0538" y1="134.645" x2="-25.3466" y2="-47.1572" gradientUnits="userSpaceOnUse">
<stop/>
<stop offset="1" stop-color="white"/>
</linearGradient>
<linearGradient id="paint7_linear_51_2" x1="46.0538" y1="134.645" x2="-25.3466" y2="-47.1572" gradientUnits="userSpaceOnUse">
<stop stop-color="#97C3F9"/>
<stop offset="1" stop-color="#93C1F9"/>
</linearGradient>
<linearGradient id="paint8_linear_51_2" x1="72.2581" y1="124.354" x2="0.857718" y2="-57.4491" gradientUnits="userSpaceOnUse">
<stop/>
<stop offset="1" stop-color="white"/>
</linearGradient>
<linearGradient id="paint9_linear_51_2" x1="72.2581" y1="124.354" x2="0.857718" y2="-57.4491" gradientUnits="userSpaceOnUse">
<stop stop-color="#97C3F9"/>
<stop offset="1" stop-color="#93C1F9"/>
</linearGradient>
<linearGradient id="paint10_linear_51_2" x1="98.4624" y1="114.062" x2="27.0621" y2="-67.7404" gradientUnits="userSpaceOnUse">
<stop/>
<stop offset="1" stop-color="white"/>
</linearGradient>
<linearGradient id="paint11_linear_51_2" x1="98.4624" y1="114.062" x2="27.0621" y2="-67.7404" gradientUnits="userSpaceOnUse">
<stop stop-color="#97C3F9"/>
<stop offset="1" stop-color="#93C1F9"/>
</linearGradient>
<linearGradient id="paint12_linear_51_2" x1="37.1113" y1="138.158" x2="-34.2903" y2="-43.6457" gradientUnits="userSpaceOnUse">
<stop/>
<stop offset="1" stop-color="white"/>
</linearGradient>
<linearGradient id="paint13_linear_51_2" x1="37.1113" y1="138.158" x2="-34.2903" y2="-43.6457" gradientUnits="userSpaceOnUse">
<stop stop-color="#97C3F9"/>
<stop offset="1" stop-color="#93C1F9"/>
</linearGradient>
<linearGradient id="paint14_linear_51_2" x1="63.3157" y1="127.867" x2="-8.0859" y2="-53.9373" gradientUnits="userSpaceOnUse">
<stop/>
<stop offset="1" stop-color="white"/>
</linearGradient>
<linearGradient id="paint15_linear_51_2" x1="63.3157" y1="127.867" x2="-8.0859" y2="-53.9373" gradientUnits="userSpaceOnUse">
<stop stop-color="#97C3F9"/>
<stop offset="1" stop-color="#93C1F9"/>
</linearGradient>
<linearGradient id="paint16_linear_51_2" x1="89.5201" y1="117.575" x2="18.1185" y2="-64.2287" gradientUnits="userSpaceOnUse">
<stop/>
<stop offset="1" stop-color="white"/>
</linearGradient>
<linearGradient id="paint17_linear_51_2" x1="89.5201" y1="117.575" x2="18.1185" y2="-64.2287" gradientUnits="userSpaceOnUse">
<stop stop-color="#97C3F9"/>
<stop offset="1" stop-color="#93C1F9"/>
</linearGradient>
<linearGradient id="paint18_linear_51_2" x1="28.169" y1="141.67" x2="-43.2327" y2="-40.1338" gradientUnits="userSpaceOnUse">
<stop/>
<stop offset="1" stop-color="white"/>
</linearGradient>
<linearGradient id="paint19_linear_51_2" x1="28.169" y1="141.67" x2="-43.2327" y2="-40.1338" gradientUnits="userSpaceOnUse">
<stop stop-color="#97C3F9"/>
<stop offset="1" stop-color="#93C1F9"/>
</linearGradient>
<linearGradient id="paint20_linear_51_2" x1="54.3734" y1="131.379" x2="-17.0283" y2="-50.4253" gradientUnits="userSpaceOnUse">
<stop/>
<stop offset="1" stop-color="white"/>
</linearGradient>
<linearGradient id="paint21_linear_51_2" x1="54.3734" y1="131.379" x2="-17.0283" y2="-50.4253" gradientUnits="userSpaceOnUse">
<stop stop-color="#97C3F9"/>
<stop offset="1" stop-color="#93C1F9"/>
</linearGradient>
<linearGradient id="paint22_linear_51_2" x1="80.5777" y1="121.087" x2="9.17609" y2="-60.7167" gradientUnits="userSpaceOnUse">
<stop/>
<stop offset="1" stop-color="white"/>
</linearGradient>
<linearGradient id="paint23_linear_51_2" x1="80.5777" y1="121.087" x2="9.17609" y2="-60.7167" gradientUnits="userSpaceOnUse">
<stop stop-color="#97C3F9"/>
<stop offset="1" stop-color="#93C1F9"/>
</linearGradient>
<linearGradient id="paint24_linear_51_2" x1="19.2266" y1="145.182" x2="-52.1751" y2="-36.622" gradientUnits="userSpaceOnUse">
<stop/>
<stop offset="1" stop-color="white"/>
</linearGradient>
<linearGradient id="paint25_linear_51_2" x1="19.2266" y1="145.182" x2="-52.1751" y2="-36.622" gradientUnits="userSpaceOnUse">
<stop stop-color="#97C3F9"/>
<stop offset="1" stop-color="#93C1F9"/>
</linearGradient>
<linearGradient id="paint26_linear_51_2" x1="45.431" y1="134.89" x2="-25.9706" y2="-46.9135" gradientUnits="userSpaceOnUse">
<stop/>
<stop offset="1" stop-color="white"/>
</linearGradient>
<linearGradient id="paint27_linear_51_2" x1="45.431" y1="134.89" x2="-25.9706" y2="-46.9135" gradientUnits="userSpaceOnUse">
<stop stop-color="#97C3F9"/>
<stop offset="1" stop-color="#93C1F9"/>
</linearGradient>
<linearGradient id="paint28_linear_51_2" x1="71.6353" y1="124.599" x2="0.233749" y2="-57.2048" gradientUnits="userSpaceOnUse">
<stop/>
<stop offset="1" stop-color="white"/>
</linearGradient>
<linearGradient id="paint29_linear_51_2" x1="71.6353" y1="124.599" x2="0.233749" y2="-57.2048" gradientUnits="userSpaceOnUse">
<stop stop-color="#97C3F9"/>
<stop offset="1" stop-color="#93C1F9"/>
</linearGradient>
</defs>
</svg>
